<svg xmlns="http://www.w3.org/2000/svg" viewBox="0 0 128 128" role="img" aria-labelledby="title">
  <title>Fokus logo</title>
  <path
    d="M64 10c-18 0-32 14-32 32v5.5c-8.4 5-14 14.5-14 25 0 16.6 13.4 30 30 30h4v5c0 11.6 9.4 21 21 21s21-9.4 21-21v-5h4c16.6 0 30-13.4 30-30 0-10.5-5.6-20-14-25V42C96 24 82 10 64 10z"
    fill="#3b82f6"
    stroke="#0f172a"
    stroke-width="6"
    stroke-linecap="round"
    stroke-linejoin="round"
  />
  <path
    d="M48 26c-8.8 0-16 7.2-16 16v4.5M80 26c8.8 0 16 7.2 16 16v4.5"
    fill="none"
    stroke="#0f172a"
    stroke-width="6"
    stroke-linecap="round"
  />
  <path
    d="M40 68c0-7 5.2-12 12-12 7 0 12 5 12 12v34"
    fill="none"
    stroke="#0f172a"
    stroke-width="6"
    stroke-linecap="round"
    stroke-linejoin="round"
  />
  <path
    d="M88 68c0-7-5.2-12-12-12-7 0-12 5-12 12v34"
    fill="none"
    stroke="#0f172a"
    stroke-width="6"
    stroke-linecap="round"
    stroke-linejoin="round"
  />
  <path
    d="M24 72h12M92 72h12"
    fill="none"
    stroke="#0f172a"
    stroke-width="6"
    stroke-linecap="round"
  />
</svg>
