<?xml version="1.0" standalone="no"?>
<!DOCTYPE svg PUBLIC "-//W3C//DTD SVG 20010904//EN"
 "http://www.w3.org/TR/2001/REC-SVG-20010904/DTD/svg10.dtd">
<svg version="1.0" xmlns="http://www.w3.org/2000/svg"
 width="300.000000pt" height="296.000000pt" viewBox="0 0 300.000000 296.000000"
 preserveAspectRatio="xMidYMid meet">
<metadata>
Created by potrace 1.10, written by Peter Selinger 2001-2011
</metadata>
<g transform="translate(0.000000,296.000000) scale(0.100000,-0.100000)"
fill="#000000" stroke="none">
<path d="M718 2953 c28 -2 76 -2 105 0 28 2 5 3 -53 3 -58 0 -81 -1 -52 -3z"/>
<path d="M1060 2644 c-134 -36 -288 -175 -315 -286 -5 -20 -17 -30 -43 -39
-187 -62 -311 -252 -316 -486 l-2 -92 -46 -49 c-84 -90 -118 -183 -118 -328 0
-94 17 -174 50 -231 15 -26 17 -38 8 -75 -18 -76 -4 -224 27 -302 47 -116 158
-218 269 -248 40 -11 49 -18 68 -58 30 -62 113 -142 184 -178 81 -41 156 -56
253 -50 67 4 93 11 153 41 71 35 154 102 176 142 9 18 14 15 56 -32 57 -63
121 -105 206 -133 53 -18 82 -21 157 -18 83 3 99 8 176 46 94 46 166 115 198
188 17 37 25 43 66 54 145 36 256 154 298 317 17 65 20 228 5 268 -7 19 -6 32
4 48 31 48 48 148 43 247 -8 144 -41 223 -131 318 -40 42 -41 44 -38 105 7
125 -39 266 -116 364 -52 65 -97 99 -169 128 -54 22 -58 27 -75 75 -26 76 -80
143 -156 193 -95 62 -143 79 -249 85 -104 5 -173 -11 -231 -55 l-33 -25 -38
25 c-85 56 -205 72 -321 41z m257 -49 c29 -14 53 -30 53 -35 0 -19 42 -21 78
-4 20 9 39 20 42 23 3 4 24 15 47 25 85 37 314 4 346 -50 4 -8 16 -14 26 -14
20 0 65 -43 54 -53 -3 -4 0 -7 8 -7 19 0 48 -34 61 -71 5 -16 14 -29 20 -29 5
0 7 -4 4 -8 -10 -16 31 -67 70 -87 21 -11 41 -23 42 -27 2 -5 12 -8 23 -8 10
0 19 -4 19 -10 0 -5 7 -10 15 -10 8 0 17 -11 21 -25 3 -14 13 -25 21 -25 17 0
52 -39 53 -57 0 -7 6 -16 14 -20 8 -4 25 -30 37 -58 19 -42 23 -72 27 -182 3
-92 8 -133 16 -133 6 0 22 -14 36 -31 14 -17 31 -38 39 -46 17 -17 51 -83 51
-98 0 -5 7 -23 15 -38 8 -15 12 -34 9 -41 -3 -8 0 -17 6 -21 20 -12 11 -203
-11 -245 -21 -39 -22 -55 -20 -232 2 -84 -2 -126 -13 -152 -8 -20 -15 -38 -16
-41 -3 -20 -14 -34 -22 -29 -6 4 -8 1 -6 -7 20 -55 -130 -188 -229 -204 -24
-4 -43 -11 -43 -16 0 -5 -8 -9 -17 -9 -9 0 -14 -3 -10 -6 3 -3 -5 -24 -19 -45
-13 -21 -24 -41 -24 -44 0 -12 -102 -105 -115 -105 -7 0 -15 -5 -17 -11 -2 -5
-10 -11 -18 -13 -8 -2 -26 -8 -40 -13 -64 -26 -160 -35 -227 -20 -26 5 -77 25
-113 45 -94 50 -99 54 -93 69 3 7 -3 16 -13 20 -11 3 -31 17 -47 29 -34 29
-47 24 -112 -39 -45 -44 -105 -85 -105 -72 0 3 -8 -3 -18 -13 -11 -11 -49 -27
-86 -37 -58 -16 -77 -17 -141 -7 -82 13 -158 40 -149 53 3 5 -2 9 -11 9 -24 0
-75 32 -72 45 1 6 -1 10 -4 10 -15 0 -51 41 -65 73 -7 18 -18 31 -24 27 -5 -3
-10 0 -10 7 -1 28 -38 55 -90 68 -37 9 -63 22 -79 42 -14 15 -31 28 -39 28
-18 0 -48 31 -56 58 -4 12 -11 22 -16 22 -4 0 -11 11 -14 25 -4 14 -10 24 -15
21 -4 -3 -8 0 -9 7 -1 7 -6 39 -12 72 -5 33 -9 113 -8 178 1 78 -3 122 -10
129 -7 7 -12 20 -12 30 0 10 -5 18 -12 18 -6 0 -9 3 -5 6 3 3 -1 24 -9 46 -17
49 -24 168 -12 223 14 70 32 120 45 128 7 4 13 14 13 22 0 8 17 31 38 53 52
53 60 75 65 177 3 50 13 110 22 135 9 25 19 56 22 70 10 40 80 143 113 165 16
11 30 23 30 27 0 4 18 11 39 14 26 4 38 11 35 19 -3 7 5 15 18 19 33 9 60 35
83 81 24 48 23 46 82 113 27 30 62 61 78 69 17 9 32 19 35 22 3 4 30 17 60 28
83 32 206 31 277 -2z"/>
<path d="M1047 2505 c-81 -44 -141 -97 -162 -142 -10 -21 -21 -40 -26 -43 -4
-3 -8 -28 -9 -55 -3 -83 -1 -107 10 -100 6 3 10 2 10 -2 0 -5 14 -31 32 -59
18 -27 31 -53 29 -59 -1 -5 0 -7 4 -3 4 3 27 -4 52 -18 25 -13 52 -24 58 -24
7 0 18 -7 25 -15 7 -9 19 -14 27 -11 9 4 13 -4 13 -25 0 -41 -35 -57 -90 -40
-22 6 -40 16 -40 22 0 6 -4 8 -9 5 -5 -3 -20 3 -34 14 -14 11 -28 20 -31 20
-13 0 -66 54 -66 67 0 7 -4 13 -9 13 -5 0 -22 28 -38 63 -42 86 -47 89 -110
64 -29 -11 -53 -24 -53 -30 0 -5 -14 -25 -31 -44 -71 -82 -115 -274 -78 -345
20 -39 61 -77 90 -83 35 -8 38 -20 7 -21 -86 -4 -125 -10 -136 -21 -7 -7 -22
-13 -32 -13 -25 0 -67 -53 -80 -101 -6 -22 -15 -37 -19 -34 -23 13 -27 -187
-5 -206 8 -6 14 -18 14 -26 0 -8 9 -35 21 -60 19 -43 21 -57 14 -169 -7 -118
6 -234 26 -234 4 0 10 -9 14 -19 8 -26 51 -72 100 -107 22 -16 42 -32 45 -36
9 -12 44 -4 65 15 26 25 55 35 78 29 16 -4 18 -13 15 -68 -2 -35 0 -64 5 -64
4 0 7 -7 7 -15 0 -21 42 -85 71 -110 36 -31 80 -52 122 -60 20 -4 37 -10 37
-14 0 -3 19 -7 42 -8 41 -3 121 21 182 55 39 21 116 93 116 107 0 6 9 21 20
32 24 27 37 141 35 316 -1 67 -3 213 -3 325 l-2 203 -27 26 c-31 29 -101 63
-145 70 -16 2 -54 -3 -86 -12 -46 -14 -68 -28 -116 -76 -32 -33 -55 -63 -52
-66 10 -10 -46 -63 -65 -63 -35 0 -40 76 -7 123 35 52 91 107 101 100 6 -3 8
-2 5 3 -6 9 16 34 29 34 17 0 43 12 43 19 0 5 14 14 30 21 37 15 195 9 212 -8
18 -18 43 -14 64 9 18 20 19 41 17 445 -2 446 -4 464 -48 488 -10 6 -25 17
-33 24 -27 24 -48 30 -117 29 -59 0 -79 -5 -128 -32z m213 -17 c84 -43 79 -18
82 -506 3 -381 1 -431 -12 -426 -60 26 -94 33 -160 34 -62 0 -85 -5 -135 -29
-111 -52 -218 -181 -218 -262 0 -103 119 -118 151 -20 20 61 96 136 153 151
58 16 118 5 173 -31 l46 -31 0 -374 c0 -271 -3 -385 -12 -415 -22 -70 -76
-130 -152 -169 -62 -31 -77 -35 -146 -35 -66 0 -86 5 -136 30 -39 20 -68 45
-89 73 -27 39 -30 52 -31 118 0 56 -5 78 -19 94 -27 30 -71 26 -104 -9 l-27
-29 -41 18 c-43 19 -107 79 -128 120 -24 47 -38 131 -31 189 3 31 9 79 12 106
5 43 1 60 -27 120 -30 63 -33 79 -34 165 0 82 3 102 25 144 43 86 54 90 263
96 l182 5 3 28 c6 50 -9 57 -130 57 l-110 0 -34 34 c-30 30 -34 40 -34 86 0
132 52 252 138 317 50 38 60 40 68 16 34 -112 109 -202 209 -249 90 -44 154
-47 184 -8 12 15 21 34 21 44 0 31 -40 69 -83 81 -133 36 -194 119 -185 249 7
97 83 180 203 222 68 23 112 22 165 -4z"/>
<path d="M575 1175 c-70 -69 27 -259 168 -328 134 -65 316 -47 399 40 43 45
45 77 10 113 -17 16 -38 30 -47 30 -9 0 -46 -16 -82 -36 -59 -34 -69 -36 -124
-31 -105 9 -181 71 -195 157 -4 24 -15 51 -26 62 -26 26 -74 23 -103 -7z m55
-25 c13 21 37 -11 51 -65 10 -38 21 -54 63 -87 28 -22 63 -45 79 -50 15 -6 27
-13 27 -17 0 -3 23 -7 50 -9 41 -1 64 5 121 34 83 41 113 42 117 0 4 -35 -14
-53 -91 -90 -54 -27 -64 -28 -145 -24 -88 5 -152 27 -181 62 -7 9 -17 14 -21
11 -10 -6 -66 57 -75 86 -4 13 -13 31 -20 39 -21 24 -24 83 -6 101 9 9 18 12
20 6 2 -5 7 -4 11 3z"/>
<path d="M1581 2526 c-8 -9 -16 -14 -19 -12 -3 3 -18 -4 -34 -15 -60 -43 -58
-19 -58 -706 0 -610 1 -629 20 -661 11 -18 20 -38 20 -45 0 -7 12 -18 28 -25
15 -7 50 -26 77 -42 45 -27 57 -30 133 -29 45 1 85 6 88 11 3 5 13 7 21 4 8
-3 12 -2 8 3 -6 11 51 61 68 61 31 0 55 -13 50 -26 -3 -8 0 -14 6 -14 9 0 9
-5 1 -20 -6 -11 -17 -20 -25 -20 -8 0 -15 -6 -15 -14 0 -19 -61 -56 -104 -63
-20 -3 -41 -12 -47 -19 -13 -16 -84 -20 -74 -4 3 5 0 7 -8 4 -18 -6 -106 20
-164 49 -41 21 -42 21 -62 3 -20 -18 -21 -30 -21 -183 0 -144 2 -169 20 -205
11 -23 20 -50 20 -60 0 -10 4 -18 8 -18 4 0 30 -21 58 -48 30 -28 67 -53 94
-61 25 -8 52 -20 60 -26 20 -16 155 -21 145 -6 -3 6 0 11 7 11 24 0 142 61
156 81 7 11 25 32 38 46 13 15 25 40 25 57 4 76 -3 142 -15 161 -8 12 -12 33
-9 48 4 22 11 27 33 27 39 0 56 -21 64 -74 7 -47 26 -66 64 -66 22 0 104 44
122 65 7 8 16 12 21 9 5 -3 9 2 9 11 0 9 8 29 19 43 10 15 22 42 26 60 3 18
10 30 15 27 12 -8 17 24 19 123 1 54 -2 93 -9 97 -5 3 -10 15 -10 26 0 11 -6
27 -12 34 -32 35 -38 45 -38 60 0 8 -4 15 -10 15 -5 0 -27 15 -47 33 -21 18
-64 45 -95 60 -43 20 -58 32 -58 47 0 11 7 20 15 20 8 0 15 7 15 15 0 8 5 15
10 15 6 0 10 -5 10 -11 0 -6 9 -8 21 -4 15 5 19 4 15 -4 -5 -7 2 -11 19 -11
27 0 100 -41 107 -60 2 -6 19 -13 38 -16 30 -5 37 -2 51 21 18 30 11 114 -17
197 -8 26 -13 52 -9 58 3 5 1 10 -6 10 -13 0 -59 46 -59 59 0 4 -15 14 -32 22
-40 17 -59 52 -48 89 10 36 3 256 -9 245 -2 -3 -15 17 -28 43 -13 27 -37 63
-53 81 -17 18 -30 37 -30 42 0 6 -4 8 -9 4 -5 -3 -12 -1 -16 5 -9 14 -64 36
-112 45 -34 5 -40 10 -36 26 6 21 -13 27 -20 7 -2 -7 -9 7 -16 32 -23 92 -35
116 -85 165 -28 28 -55 51 -59 52 -4 1 -29 12 -55 25 -62 30 -191 38 -211 14z
m170 -31 c66 -23 147 -83 174 -129 13 -23 27 -65 31 -94 8 -64 33 -87 104 -97
63 -9 121 -47 166 -111 59 -83 78 -184 60 -325 l-8 -66 46 -32 c102 -71 135
-130 143 -263 3 -49 4 -88 1 -88 -3 0 -22 15 -41 34 -43 40 -128 84 -180 93
-45 7 -82 -14 -91 -52 -10 -39 16 -71 79 -101 150 -71 220 -195 196 -341 -15
-86 -62 -183 -104 -215 -45 -34 -99 -60 -107 -51 -4 5 -13 31 -19 58 -16 67
-44 95 -92 95 -28 0 -42 -6 -53 -22 -20 -28 -20 -47 0 -109 12 -35 15 -69 11
-111 -7 -76 -41 -121 -123 -163 -51 -26 -69 -30 -139 -29 -130 1 -222 57 -275
168 -30 63 -30 66 -30 230 0 91 2 166 5 166 2 0 21 -11 41 -25 40 -27 114 -52
179 -61 82 -11 243 63 285 131 26 43 25 71 -5 100 -35 36 -76 33 -122 -9 -54
-47 -75 -56 -136 -56 -92 0 -168 38 -220 111 l-27 37 0 632 0 632 31 29 c52
49 139 62 220 34z"/>
<path d="M1705 2030 c-22 -24 -22 -76 0 -100 9 -10 33 -21 53 -25 109 -19 179
-141 141 -242 -16 -43 -69 -93 -126 -119 -82 -37 -104 -84 -58 -129 33 -34 78
-32 153 6 78 39 154 120 177 190 26 78 18 211 -17 270 -35 59 -107 125 -164
149 -61 27 -135 26 -159 0z m139 -25 c20 -8 36 -19 36 -24 0 -6 10 -13 23 -16
29 -9 79 -62 63 -69 -6 -2 -3 -5 6 -5 32 -2 53 -68 53 -171 0 -87 -2 -99 -28
-140 -61 -96 -157 -157 -233 -148 -24 2 -29 8 -29 31 0 15 4 27 9 26 5 0 12 3
15 8 3 4 23 17 44 27 38 19 107 80 107 94 0 5 5 13 12 20 12 12 19 47 21 102
1 47 -60 143 -105 166 -18 9 -35 21 -38 25 -5 7 -33 15 -62 18 -13 2 -9 59 5
64 24 10 65 7 101 -8z"/>
</g>
</svg>
