<svg xmlns="http://www.w3.org/2000/svg" viewBox="0 0 128 128" role="img" aria-labelledby="title">
  <title>Fokus brain logo</title>
  <path
    d="M64 8c-21 0-38 17-38 38v5.5c-10.2 6.3-16.5 17.5-16.5 30.5 0 21 17 38 38 38h4v6c0 12.7 10.3 23 23 23s23-10.3 23-23v-6h4c21 0 38-17 38-38 0-13-6.3-24.2-16.5-30.5V46C102 25 85 8 64 8z"
    fill="#35b1ff"
    stroke="#0a0a0a"
    stroke-width="8"
    stroke-linecap="round"
    stroke-linejoin="round"
  />
  <path
    d="M46 24c-10 0-18 8-18 18v7"
    fill="none"
    stroke="#0a0a0a"
    stroke-width="8"
    stroke-linecap="round"
  />
  <path
    d="M82 24c10 0 18 8 18 18v7"
    fill="none"
    stroke="#0a0a0a"
    stroke-width="8"
    stroke-linecap="round"
  />
  <path
    d="M40 70c0-8 6-14 14-14s14 6 14 14v40"
    fill="none"
    stroke="#0a0a0a"
    stroke-width="8"
    stroke-linecap="round"
    stroke-linejoin="round"
  />
  <path
    d="M88 70c0-8-6-14-14-14s-14 6-14 14v40"
    fill="none"
    stroke="#0a0a0a"
    stroke-width="8"
    stroke-linecap="round"
    stroke-linejoin="round"
  />
  <path
    d="M28 74h10"
    fill="none"
    stroke="#0a0a0a"
    stroke-width="8"
    stroke-linecap="round"
  />
  <path
    d="M90 74h10"
    fill="none"
    stroke="#0a0a0a"
    stroke-width="8"
    stroke-linecap="round"
  />
  <path
    d="M46 52c0 4.5 3.5 8 8 8"
    fill="none"
    stroke="#0a0a0a"
    stroke-width="8"
    stroke-linecap="round"
  />
  <path
    d="M36 60c0 4 3 7 7 7"
    fill="none"
    stroke="#0a0a0a"
    stroke-width="8"
    stroke-linecap="round"
  />
  <path
    d="M82 52c0 4.5-3.5 8-8 8"
    fill="none"
    stroke="#0a0a0a"
    stroke-width="8"
    stroke-linecap="round"
  />
  <path
    d="M92 60c0 4-3 7-7 7"
    fill="none"
    stroke="#0a0a0a"
    stroke-width="8"
    stroke-linecap="round"
  />
</svg>
