<svg xmlns="http://www.w3.org/2000/svg" width="410" height="404" viewBox="0 0 410 404">
  <defs>
    <linearGradient id="a" x1="0%" x2="100%" y1="0%" y2="100%">
      <stop offset="0%" stop-color="#41D1FF" />
      <stop offset="100%" stop-color="#BD34FE" />
    </linearGradient>
    <linearGradient id="b" x1="0%" x2="100%" y1="0%" y2="100%">
      <stop offset="0%" stop-color="#FFEA83" />
      <stop offset="8.333%" stop-color="#FFDD35" />
      <stop offset="100%" stop-color="#FFA800" />
    </linearGradient>
  </defs>
  <path
    fill="url(#a)"
    d="M399.641 59.524L215.641 388.297c-5.564 9.68-19.719 9.752-25.373.137L9.583 59.626c-6.144-10.39 1.686-23.395 13.299-22.106l182.573 20.482a14.6 14.6 0 001.597-.003l179.182-20.395c11.575-1.318 19.4 11.514 13.31 21.869z"
  />
  <path
    fill="url(#b)"
    d="M292.965.322l-68.518 13.246c-1.815.351-3.081 1.79-3.27 3.62l-7.5 73.74c-.27 2.659 2.278 4.724 4.736 3.83l19.18-6.949c2.347-.849 4.905.666 5.44 3.098l11.876 54.214c.516 2.355 3.478 3.172 5.167 1.51l7.207-7.054a3.61 3.61 0 015.838 1.302l17.819 38.725c1.2 2.605 4.74 2.616 5.958.018l60.677-132.727c1.284-2.808-.88-6.024-3.945-5.477l-21.33 3.823c-2.924.524-5.413-2.032-4.759-4.934l4.132-18.144c.657-2.882-1.946-5.46-4.796-4.866l-15.606 3.29c-2.924.616-5.547-1.99-4.843-4.887l4.986-20.078c.67-2.698-1.664-5.18-4.39-4.672z"
  />
</svg>
