<svg xmlns="http://www.w3.org/2000/svg" viewBox="0 0 120 120" fill="none">
  <rect width="120" height="120" rx="18" fill="#F4F6FB"/>
  <rect x="26" y="26" width="68" height="68" rx="10" fill="#fff" stroke="#2563EB" stroke-width="3"/>
  <rect x="34" y="34" width="16" height="16" rx="4" fill="#E8EEFC"/>
  <rect x="52" y="34" width="16" height="16" rx="4" fill="#CBD5F5"/>
  <rect x="70" y="34" width="16" height="16" rx="4" fill="#E8EEFC"/>
  <rect x="34" y="52" width="16" height="16" rx="4" fill="#CBD5F5"/>
  <rect x="52" y="52" width="16" height="16" rx="4" fill="#E8EEFC"/>
  <rect x="70" y="52" width="16" height="16" rx="4" fill="#CBD5F5"/>
  <rect x="34" y="70" width="16" height="16" rx="4" fill="#E8EEFC"/>
  <rect x="52" y="70" width="16" height="16" rx="4" fill="#CBD5F5"/>
  <rect x="70" y="70" width="16" height="16" rx="4" fill="#E8EEFC"/>
  <path d="M38 42l16 16 18-18 12 12" stroke="#10B981" stroke-width="4" stroke-linecap="round" stroke-linejoin="round"/>
  <circle cx="86" cy="46" r="5" fill="#2563EB"/>
</svg>
